<svg width="85" height="20" viewBox="0 0 85 20" fill="none" xmlns="http://www.w3.org/2000/svg">
<path fill-rule="evenodd" clip-rule="evenodd" d="M84.6459 19H83.1757C79.6075 19 76.7048 16.0351 76.7048 12.3897V0H79.9556V5.24131H84.6441V8.56188H79.9556V12.3897C79.9556 14.2044 81.399 15.6794 83.1757 15.6794H84.6459V19ZM56.4452 19.0003H59.696V11.7927C59.696 8.14735 56.7933 5.18246 53.2251 5.18246C52.0536 5.18246 50.9538 5.50204 50.005 6.06036V0H46.7541V11.7927V12.485V19.0003H50.005V12.485V11.7927C50.005 9.97809 51.4483 8.50303 53.2251 8.50303C55.0018 8.50303 56.4452 9.97809 56.4452 11.7927V19.0003ZM25.1094 12.3898C25.1094 16.0352 28.0121 19.0001 31.5803 19.0001C35.1485 19.0001 38.0513 16.0352 38.0513 12.3898V5.24131H34.8004V12.3898C34.8004 14.2044 33.3571 15.6795 31.5803 15.6795C29.8036 15.6795 28.3603 14.2044 28.3603 12.3898V5.24131H25.1094V12.3898ZM68.1058 19.0001C64.5376 19.0001 61.6349 16.0352 61.6349 12.3898V5.24131H64.8857V12.3898C64.8857 14.2044 66.3291 15.6795 68.1058 15.6795C69.8825 15.6795 71.3259 14.2044 71.3259 12.3898V5.24131H74.5768V12.3898C74.5768 16.0352 71.674 19.0001 68.1058 19.0001ZM40.4918 5.24131V19.0001H43.7427V5.24131H40.4918ZM44.1142 2.04415C44.1142 3.17293 43.2184 4.0883 42.1138 4.0883C41.0092 4.0883 40.1135 3.17293 40.1135 2.04415C40.1135 0.915371 41.0092 0 42.1138 0C43.2184 0 44.1142 0.915371 44.1142 2.04415Z" fill="black"/>
<path d="M9.875 2.06838C9.875 0.925403 8.97509 0 7.86666 0H0.5V10C0.5 15.5242 4.69776 20 9.875 20V2.06838Z" fill="url(#paint0_linear_340_4984)"/>
<path d="M11.125 12.6333C11.125 11.5235 12.0249 10.625 13.1333 10.625H20.5C20.5 15.8036 16.3022 20 11.125 20V12.6333Z" fill="url(#paint1_linear_340_4984)"/>
<path d="M15.8125 0C18.4015 0 20.5 2.09888 20.5 4.6875C20.5 7.27612 18.4015 9.375 15.8125 9.375C13.2235 9.375 11.125 7.27612 11.125 4.6875C11.125 2.09888 13.2235 0 15.8125 0Z" fill="url(#paint2_linear_340_4984)"/>
<defs>
<linearGradient id="paint0_linear_340_4984" x1="1.4375" y1="-1.56251" x2="12.945" y2="-2.24951" gradientUnits="userSpaceOnUse">
<stop stop-color="#FF808D"/>
<stop offset="1" stop-color="#AC66F3"/>
</linearGradient>
<linearGradient id="paint1_linear_340_4984" x1="1.4375" y1="-1.56251" x2="12.945" y2="-2.24951" gradientUnits="userSpaceOnUse">
<stop stop-color="#FF808D"/>
<stop offset="1" stop-color="#AC66F3"/>
</linearGradient>
<linearGradient id="paint2_linear_340_4984" x1="1.4375" y1="-1.56251" x2="12.945" y2="-2.24951" gradientUnits="userSpaceOnUse">
<stop stop-color="#FF808D"/>
<stop offset="1" stop-color="#AC66F3"/>
</linearGradient>
</defs>
</svg>
